HIERARCHY
ROOT Hips
{
	OFFSET 0.000000 88.474243 0.000000
	CHANNELS 6 Xposition Yposition Zposition Zrotation Yrotation Xrotation 
	JOINT Hips_Spine
	{
		OFFSET 0.000000 0.000000 0.000000
		CHANNELS 3 Zrotation Yrotation Xrotation
		JOINT Spine
		{
			OFFSET 0.005100 8.711998 -0.691000
			CHANNELS 3 Zrotation Yrotation Xrotation
			JOINT Spine1
			{
				OFFSET -0.009200 8.660301 -1.275000
				CHANNELS 3 Zrotation Yrotation Xrotation
				JOINT Spine2
				{
					OFFSET 0.006300 9.852501 -1.857000
					CHANNELS 3 Zrotation Yrotation Xrotation
					JOINT Spine2_Neck
					{
						OFFSET 0.000000 0.000000 0.000000
						CHANNELS 3 Zrotation Yrotation Xrotation
						JOINT Neck
						{
							OFFSET 0.016300 11.420799 -0.263300
							CHANNELS 3 Zrotation Yrotation Xrotation
							End Site #name: Head
							{
								OFFSET -0.019200 9.262405 2.362500
							}
						}
					}
					JOINT Spine2_LeftShoulder
					{
						OFFSET 0.000000 0.000000 0.000000
						CHANNELS 3 Zrotation Yrotation Xrotation
						JOINT LeftShoulder
						{
							OFFSET 5.616900 6.732201 -0.345700
							CHANNELS 3 Zrotation Yrotation Xrotation
							JOINT LeftArm
							{
								OFFSET 10.664888 -0.183372 -2.440700
								CHANNELS 3 Zrotation Yrotation Xrotation
								JOINT LeftForeArm
								{
									OFFSET 27.459126 0.000000 0.000000
									CHANNELS 3 Zrotation Yrotation Xrotation
									End Site #name: LeftHand
									{
										OFFSET 21.306858 0.000000 0.000000
									}
								}
							}
						}
					}
					JOINT Spine2_RightShoulder
					{
						OFFSET 0.000000 0.000000 0.000000
						CHANNELS 3 Zrotation Yrotation Xrotation
						JOINT RightShoulder
						{
							OFFSET -5.580300 6.737503 -0.344400
							CHANNELS 3 Zrotation Yrotation Xrotation
							JOINT RightArm
							{
								OFFSET -10.679335 -0.188484 -2.383900
								CHANNELS 3 Zrotation Yrotation Xrotation
								JOINT RightForeArm
								{
									OFFSET -27.503529 0.000000 0.000000
									CHANNELS 3 Zrotation Yrotation Xrotation
									End Site #name: RightHand
									{
										OFFSET -21.306808 0.000000 0.000000
									}
								}
							}
						}
					}
				}
			}
		}
	}
	JOINT Hips_LeftUpLeg
	{
		OFFSET 0.000000 0.000000 0.000000
		CHANNELS 3 Zrotation Yrotation Xrotation
		JOINT LeftUpLeg
		{
			OFFSET 6.857700 -6.739601 0.312100
			CHANNELS 3 Zrotation Yrotation Xrotation
			JOINT LeftLeg
			{
				OFFSET -0.367590 -34.731552 -4.572400
				CHANNELS 3 Zrotation Yrotation Xrotation
				End Site #name: LeftFoot
				{
					OFFSET 0.367590 -34.656704 -6.067400
				}
			}
		}
	}
	JOINT Hips_RightUpLeg
	{
		OFFSET 0.000000 0.000000 0.000000
		CHANNELS 3 Zrotation Yrotation Xrotation
		JOINT RightUpLeg
		{
			OFFSET -6.876100 -6.733299 0.301000
			CHANNELS 3 Zrotation Yrotation Xrotation
			JOINT RightLeg
			{
				OFFSET 0.347353 -34.795158 -4.515900
				CHANNELS 3 Zrotation Yrotation Xrotation
				End Site #name: RightFoot
				{
					OFFSET -0.347353 -34.589367 -6.070300
				}
			}
		}
	}
}
MOTION
Frames: 19
Frame Time: 0.041667
-0.283537 0.219740 -1.284087 -3.937011 1.057605 -2.945756 0.000000 -0.000000 0.000000 3.107538 -0.190036 22.022084 0.231108 0.200352 3.468420 0.000000 0.000000 0.000000 0.421489 0.237706 2.555997 1.924276 -0.645314 9.370652 0.552711 0.272751 2.745096 -7.280228 1.975171 -1.338039 -66.333559 -2.307639 8.523985 0.127989 -27.866797 0.735532 0.174959 0.397761 3.066697 3.693900 -4.957656 0.258498 69.123472 7.854525 4.981962 -179.797447 70.585396 -179.862448 -0.000000 -0.000000 0.000000 7.403073 10.109478 -57.614776 5.965160 -3.483777 60.344755 0.000000 0.000000 0.000000 -5.335378 -7.110338 -51.864068 0.278753 -0.926062 61.779277 
-0.294145 0.224728 -1.318426 -3.926930 1.047022 -2.946183 0.000000 -0.000000 0.000000 3.108539 -0.187599 22.028457 0.235656 0.198943 3.476580 0.000000 0.000000 0.000000 0.428213 0.235209 2.567724 1.927352 -0.644474 9.359805 0.558394 0.271003 2.753635 -7.276656 1.942293 -1.332589 -66.312708 -2.317121 8.372071 0.127673 -27.796325 0.734569 0.178640 0.398052 3.077367 3.706629 -4.890016 0.264991 69.232424 7.917235 5.160374 -179.782474 70.922222 -179.846208 -0.000000 -0.000000 0.000000 7.406951 10.108512 -57.623019 5.971498 -3.482709 60.355955 0.000000 0.000000 0.000000 -5.326160 -7.111739 -51.863619 0.276858 -0.928870 61.785961 
-0.303818 0.229244 -1.352600 -3.919100 1.039430 -2.946130 0.000000 -0.000000 0.000000 3.109589 -0.184998 22.036840 0.242136 0.197349 3.485575 0.000000 0.000000 0.000000 0.436877 0.232490 2.582330 1.928698 -0.641584 9.346580 0.567421 0.268634 2.764298 -7.271888 1.895869 -1.324907 -66.279146 -2.319696 8.209932 0.127592 -27.716750 0.732819 0.183402 0.398771 3.089554 3.759017 -4.790261 0.276304 69.341477 7.986886 5.392371 -179.765394 71.429748 -179.827546 -0.000000 -0.000000 0.000000 7.408685 10.108804 -57.630281 5.981318 -3.481933 60.355869 0.000000 0.000000 0.000000 -5.318543 -7.111612 -51.858461 0.275144 -0.931368 61.789139 
-0.312496 0.233373 -1.386625 -3.913378 1.030209 -2.945608 0.000000 -0.000000 0.000000 3.112834 -0.180858 22.041213 0.249636 0.195848 3.493839 0.000000 0.000000 0.000000 0.447963 0.229087 2.597948 1.928197 -0.638132 9.326626 0.576935 0.266278 2.775049 -7.274378 1.835688 -1.313526 -66.237973 -2.330532 8.008138 0.127055 -27.614320 0.731361 0.189663 0.399847 3.102411 3.831647 -4.671225 0.290002 69.471445 8.107155 5.708986 -179.751762 72.228008 -179.809000 -0.000000 -0.000000 0.000000 7.411816 10.110985 -57.638583 5.991930 -3.477998 60.359416 0.000000 0.000000 0.000000 -5.309519 -7.112424 -51.850243 0.273958 -0.933189 61.789360 
-0.320165 0.237161 -1.420453 -3.908899 1.022668 -2.945798 0.000000 -0.000000 0.000000 3.117980 -0.175983 22.046418 0.258819 0.194177 3.501950 0.000000 0.000000 0.000000 0.460813 0.225628 2.616069 1.927017 -0.630044 9.302399 0.589257 0.263665 2.785809 -7.274953 1.765199 -1.300117 -66.212537 -2.372618 7.830836 0.126658 -27.502801 0.729565 0.196780 0.401596 3.116010 3.906164 -4.524272 0.302002 69.626720 8.286415 6.107540 -179.742299 73.307954 -179.791984 -0.000000 -0.000000 0.000000 7.414198 10.114805 -57.644270 6.003639 -3.473227 60.361437 0.000000 0.000000 0.000000 -5.302326 -7.112069 -51.842019 0.273550 -0.934292 61.786252 
-0.326768 0.240647 -1.454161 -3.905036 1.013498 -2.944164 0.000000 -0.000000 0.000000 3.124268 -0.165490 22.050107 0.269870 0.192382 3.510839 0.000000 0.000000 0.000000 0.476041 0.222102 2.635504 1.924413 -0.621304 9.277617 0.603590 0.260766 2.799952 -7.282771 1.680410 -1.284129 -66.174073 -2.432211 7.657209 0.126289 -27.395753 0.728808 0.210429 0.400378 3.131648 3.973819 -4.341816 0.289889 69.807008 8.525251 6.623850 -179.731548 74.531389 -179.774492 -0.000000 -0.000000 0.000000 7.415339 10.119847 -57.649147 6.014049 -3.470647 60.360808 0.000000 0.000000 0.000000 -5.294870 -7.111099 -51.831319 0.273878 -0.936575 61.778003 
-0.332337 0.243841 -1.487760 -3.904299 1.006030 -2.943518 0.000000 -0.000000 0.000000 3.133968 -0.156762 22.052357 0.283242 0.190278 3.519181 0.000000 0.000000 0.000000 0.493556 0.217918 2.658278 1.922733 -0.610578 9.246214 0.619580 0.257577 2.813579 -7.287372 1.584206 -1.263854 -66.146594 -2.471537 7.453077 0.126691 -27.253146 0.726913 0.229854 0.398835 3.157271 4.069703 -4.210657 0.281348 69.995161 8.794494 7.222464 -179.714718 75.932255 -179.750536 -0.000000 -0.000000 0.000000 7.419616 10.125140 -57.655439 6.025016 -3.467354 60.361133 0.000000 0.000000 0.000000 -5.286425 -7.109633 -51.819939 0.272975 -0.939409 61.768365 
-0.336853 0.246893 -1.521300 -3.904002 0.998924 -2.942173 0.000000 -0.000000 0.000000 3.146808 -0.143645 22.055813 0.297057 0.188408 3.528237 0.000000 0.000000 0.000000 0.512958 0.214289 2.682944 1.917597 -0.598236 9.209571 0.637940 0.255082 2.828200 -7.298222 1.478266 -1.242660 -66.112479 -2.532573 7.241965 0.125670 -27.101511 0.725268 0.254091 0.396755 3.189328 4.208148 -4.133539 0.264589 70.197177 9.196490 7.851330 -179.711766 77.859463 -179.728160 -0.000000 -0.000000 0.000000 7.422829 10.131411 -57.657057 6.036532 -3.463021 60.354741 0.000000 0.000000 0.000000 -5.277625 -7.108691 -51.812252 0.272262 -0.940046 61.757411 
-0.340335 0.249770 -1.554752 -3.904919 0.992470 -2.939889 0.000000 -0.000000 0.000000 3.160119 -0.124946 22.049313 0.311455 0.187443 3.536926 0.000000 0.000000 0.000000 0.533437 0.211296 2.709591 1.912150 -0.587321 9.170022 0.657035 0.252963 2.844195 -7.306420 1.368035 -1.218569 -66.066834 -2.590785 7.014099 0.126657 -26.929775 0.723837 0.278821 0.395325 3.221334 4.394622 -4.077118 0.249548 70.431098 9.782611 8.451528 -179.695765 80.004126 -179.694345 -0.000000 -0.000000 0.000000 7.428077 10.137046 -57.657248 6.046734 -3.458370 60.351006 0.000000 0.000000 0.000000 -5.268971 -7.105616 -51.795750 0.270366 -0.941329 61.739753 
-0.342766 0.252599 -1.588155 -3.906677 0.985534 -2.937090 0.000000 -0.000000 0.000000 3.171704 -0.097449 22.040807 0.326695 0.187223 3.545663 0.000000 0.000000 0.000000 0.554859 0.209991 2.736724 1.905971 -0.572956 9.127789 0.675589 0.252374 2.861294 -7.327227 1.241148 -1.191224 -66.031988 -2.664527 6.788016 0.127652 -26.741278 0.721735 0.304073 0.395220 3.255305 4.612780 -4.024377 0.240552 70.713395 10.458882 9.087835 -179.649157 82.393171 -179.631853 -0.000000 -0.000000 0.000000 7.430059 10.145149 -57.662193 6.059770 -3.451737 60.350415 0.000000 0.000000 0.000000 -5.260780 -7.103446 -51.774855 0.269610 -0.944402 61.714846 
-0.344242 0.255446 -1.621621 -3.910688 0.978264 -2.934850 0.000000 -0.000000 0.000000 3.187203 -0.066332 22.029969 0.342642 0.187841 3.554183 0.000000 0.000000 0.000000 0.577975 0.209612 2.763965 1.901931 -0.557792 9.084661 0.692372 0.252365 2.883900 -7.339289 1.118398 -1.164359 -65.989599 -2.729228 6.567119 0.127909 -26.531007 0.720866 0.330526 0.396167 3.290027 4.844358 -3.972687 0.232417 71.185203 11.022637 9.762611 -179.516038 85.349127 -179.485944 -0.000000 -0.000000 0.000000 7.433731 10.150669 -57.665894 6.074814 -3.442290 60.344796 0.000000 0.000000 0.000000 -5.248147 -7.099509 -51.753119 0.270509 -0.946705 61.686944 
-0.344756 0.258341 -1.655141 -3.915450 0.974058 -2.932286 0.000000 -0.000000 0.000000 3.203166 -0.029630 22.006917 0.358563 0.188226 3.564172 0.000000 0.000000 0.000000 0.602702 0.210098 2.791977 1.899011 -0.540345 9.040404 0.710796 0.253365 2.906265 -7.369077 0.989521 -1.136975 -65.947389 -2.788346 6.355783 0.128646 -26.340415 0.719682 0.359981 0.397219 3.327523 5.089815 -3.912059 0.221844 71.654350 11.354657 10.739231 -177.968331 88.932839 -177.927239 -0.000000 -0.000000 0.000000 7.434138 10.157784 -57.673543 6.094311 -3.431646 60.342483 0.000000 0.000000 0.000000 -5.240316 -7.095570 -51.730306 0.268615 -0.950398 61.660917 
-0.344363 0.261432 -1.688687 -3.921725 0.970220 -2.928750 0.000000 -0.000000 0.000000 3.219997 0.007753 21.971602 0.375396 0.188561 3.575475 0.000000 0.000000 0.000000 0.628711 0.211488 2.820607 1.898630 -0.521892 9.001748 0.733186 0.251662 2.930536 -7.393381 0.876151 -1.110052 -65.910217 -2.831582 6.145044 0.129596 -26.101930 0.718749 0.391493 0.398407 3.363908 5.379819 -3.898605 0.208656 72.159215 11.742748 11.776512 -0.578749 86.750069 -0.522677 -0.000000 -0.000000 0.000000 7.435679 10.167287 -57.686189 6.114176 -3.418908 60.345507 0.000000 0.000000 0.000000 -5.230645 -7.091375 -51.717859 0.269899 -0.951996 61.637754 
-0.343039 0.264725 -1.722338 -3.927558 0.965415 -2.924069 0.000000 -0.000000 0.000000 3.233019 0.048620 21.916077 0.393041 0.188975 3.585693 0.000000 0.000000 0.000000 0.655894 0.213095 2.847622 1.900262 -0.503326 8.965704 0.758865 0.253247 2.957787 -7.421147 0.763165 -1.083133 -65.862705 -2.882293 5.941912 0.131207 -25.909373 0.719045 0.424595 0.398342 3.398189 5.692528 -3.892741 0.196748 72.774422 12.215485 12.893225 -0.166208 81.474123 -0.093294 -0.000000 -0.000000 0.000000 7.437906 10.173450 -57.705135 6.136026 -3.403999 60.361168 0.000000 0.000000 0.000000 -5.222036 -7.088392 -51.699191 0.268935 -0.955682 61.610915 
-0.340674 0.268312 -1.756133 -3.934272 0.959762 -2.918531 0.000000 -0.000000 0.000000 3.245115 0.086768 21.839371 0.410933 0.189551 3.594716 0.000000 0.000000 0.000000 0.683804 0.215430 2.874096 1.901954 -0.483283 8.931560 0.785233 0.254837 2.980742 -7.437448 0.668635 -1.061377 -65.835290 -2.918764 5.773100 0.132785 -25.692627 0.718441 0.457284 0.397785 3.428566 6.004360 -3.861492 0.185499 73.444482 12.731139 13.952920 -0.061634 74.368132 0.032397 -0.000000 -0.000000 0.000000 7.438733 10.182519 -57.726488 6.160255 -3.386590 60.374984 0.000000 0.000000 0.000000 -5.213236 -7.087131 -51.679656 0.268882 -0.956615 61.587367 
-0.337214 0.272317 -1.790066 -3.941051 0.955266 -2.912653 0.000000 -0.000000 0.000000 3.253642 0.125645 21.740786 0.428796 0.190648 3.603191 0.000000 0.000000 0.000000 0.711076 0.218702 2.898561 1.903945 -0.462025 8.899443 0.811121 0.258274 3.004812 -7.465634 0.579019 -1.039040 -65.802750 -2.965074 5.619926 0.133481 -25.504634 0.719685 0.490677 0.397285 3.458931 6.286105 -3.840791 0.184315 73.950824 13.317222 15.234783 -0.032522 66.609007 0.091651 -0.000000 -0.000000 0.000000 7.436925 10.188927 -57.742000 6.185652 -3.371036 60.380019 0.000000 0.000000 0.000000 -5.204699 -7.083077 -51.657401 0.267431 -0.959318 61.556642 
-0.332583 0.276709 -1.824219 -3.948717 0.950181 -2.906548 0.000000 -0.000000 0.000000 3.257027 0.157338 21.629486 0.445714 0.191740 3.612745 0.000000 0.000000 0.000000 0.736534 0.223140 2.919224 1.905927 -0.441650 8.869566 0.834760 0.262436 3.025889 -7.489113 0.498243 -1.019905 -65.794929 -3.015928 5.505647 0.135576 -25.313209 0.720073 0.522544 0.398551 3.485542 6.574203 -3.792815 0.194101 74.324406 13.867141 16.686314 -0.052353 60.594480 0.056966 -0.000000 -0.000000 0.000000 7.436466 10.198513 -57.757906 6.211290 -3.351777 60.392161 0.000000 0.000000 0.000000 -5.193901 -7.077848 -51.635728 0.270167 -0.959785 61.525607 
-0.326487 0.281515 -1.858539 -3.956592 0.946670 -2.900698 0.000000 -0.000000 0.000000 3.249554 0.184816 21.506690 0.468699 0.188855 3.621429 0.000000 0.000000 0.000000 0.758065 0.229377 2.933373 1.908909 -0.418828 8.843434 0.854933 0.267868 3.042502 -7.514470 0.440228 -1.004088 -65.794162 -3.056950 5.453434 0.136065 -25.094135 0.723824 0.549256 0.402422 3.507258 6.845029 -3.663435 0.202610 74.588908 14.299666 18.088488 -0.049030 55.672542 0.036332 -0.000000 -0.000000 0.000000 7.433475 10.204065 -57.775874 6.235259 -3.331680 60.405477 0.000000 0.000000 0.000000 -5.182091 -7.076014 -51.615579 0.269483 -0.960798 61.500509 
-0.318748 0.286560 -1.892886 -3.965213 0.944248 -2.896926 0.000000 -0.000000 0.000000 3.234936 0.206551 21.379632 0.488120 0.184752 3.622839 0.000000 0.000000 0.000000 0.774501 0.236682 2.941270 1.912881 -0.397295 8.824356 0.870547 0.274277 3.050257 -7.530780 0.406225 -0.991875 -65.801638 -3.119382 5.385082 0.135246 -24.833817 0.727925 0.569616 0.407001 3.520179 7.061241 -3.495589 0.208861 74.808865 14.663584 19.313991 -0.038726 51.340032 0.024241 -0.000000 -0.000000 0.000000 7.430279 10.209716 -57.797846 6.259827 -3.314537 60.423220 0.000000 0.000000 0.000000 -5.173123 -7.070753 -51.600000 0.271516 -0.960423 61.482821 
